<svg width="16" height="15" viewBox="0 0 16 15" fill="none" xmlns="http://www.w3.org/2000/svg">
<path fill-rule="evenodd" clip-rule="evenodd" d="M9.99769 3.69093C9.62895 3.69093 9.33023 3.38076 9.33023 2.99902V1.96061H6.66487V2.99902C6.66487 3.38076 6.36505 3.69093 5.99741 3.69093C5.62977 3.69093 5.33105 3.38076 5.33105 2.99902V1.96061C5.33105 1.19713 5.9285 0.575684 6.66487 0.575684H9.33023C10.0666 0.575684 10.664 1.19713 10.664 1.96061V2.99902C10.664 3.38076 10.3653 3.69093 9.99769 3.69093Z" fill="white"/>
<path fill-rule="evenodd" clip-rule="evenodd" d="M8.47324 9.84063C8.35397 9.88948 8.18109 9.92356 8.00055 9.92356C7.82001 9.92356 7.64714 9.88949 7.48739 9.827L0 7.23779V12.5196C0 13.5717 0.820618 14.4238 1.83382 14.4238H14.1673C15.1804 14.4238 16 13.5717 16 12.5196V7.23779L8.47324 9.84063Z" fill="white"/>
<path fill-rule="evenodd" clip-rule="evenodd" d="M16 4.5516V6.13651L8.16029 8.85068C8.10668 8.87113 8.05416 8.87796 8.00055 8.87796C7.94694 8.87796 7.89442 8.87113 7.84081 8.85068L0 6.13651V4.5516C0 3.49955 0.820618 2.64746 1.83382 2.64746H14.1673C15.1804 2.64746 16 3.49955 16 4.5516Z" fill="white"/>
</svg>
