<svg width="180" height="48" viewBox="0 0 180 48" fill="none" xmlns="http://www.w3.org/2000/svg">
<path d="M33.043 18.4355C33.043 17.9799 33.0115 17.6265 32.9484 17.3726C32.8841 17.1199 32.777 16.9223 32.6245 16.7783C32.4732 16.6356 32.274 16.5374 32.0257 16.4812C31.7786 16.4262 31.4684 16.3843 31.094 16.3555C31.0096 16.3555 30.9402 16.3149 30.8873 16.2325C30.8343 16.15 30.8079 16.0636 30.8079 15.9694C30.8079 15.8764 30.8343 15.7926 30.8873 15.7193C30.9402 15.6447 31.0096 15.6068 31.094 15.6068H31.6865C31.9551 15.6068 32.2564 15.6107 32.5879 15.6185C32.9195 15.6251 33.2649 15.6329 33.6216 15.6395C33.9784 15.6473 34.3011 15.6617 34.5911 15.684C34.8798 15.7062 35.1256 15.7351 35.3273 15.7717C35.529 15.8084 35.6362 15.8568 35.65 15.9157L40.0585 26.6651C40.0863 26.7096 40.119 26.7305 40.1543 26.7305C40.1896 26.7305 40.2211 26.7096 40.2489 26.6651L44.5943 15.9157C44.6082 15.8568 44.7922 15.8084 45.1452 15.7717C45.4982 15.7351 45.9092 15.7062 46.3794 15.684C46.8496 15.6617 47.3262 15.6434 47.8103 15.629C48.2943 15.6146 48.6813 15.6068 48.97 15.6068C49.0621 15.6068 49.1264 15.6447 49.1617 15.7193C49.197 15.7926 49.2146 15.8764 49.2146 15.9694C49.2146 16.0636 49.1932 16.1474 49.1503 16.2207C49.1087 16.2953 49.0482 16.3398 48.97 16.3555C48.4834 16.4432 48.1015 16.5257 47.8254 16.6029C47.5505 16.6801 47.3476 16.8189 47.2165 17.0204C47.0854 17.222 47.006 17.5192 46.9782 17.9119C46.9505 18.3046 46.9354 18.8609 46.9354 19.5795V27.8968C46.9354 28.389 46.9643 28.7738 47.0211 29.0526C47.0765 29.3315 47.1812 29.5461 47.3337 29.6967C47.485 29.8472 47.6993 29.9571 47.9741 30.0265C48.2502 30.0959 48.607 30.1535 49.0444 30.1967C49.1289 30.2111 49.1969 30.2582 49.2461 30.3381C49.2953 30.4179 49.3205 30.503 49.3205 30.5933C49.3205 30.6836 49.2953 30.7648 49.2461 30.8368C49.1969 30.9088 49.1188 30.9454 49.0129 30.9454C48.4405 30.9454 47.8897 30.9153 47.3602 30.8577C46.8295 30.7988 46.3038 30.7687 45.7806 30.7687C45.2297 30.7687 44.6624 30.7988 44.08 30.8577C43.4976 30.9153 42.9656 30.9454 42.4853 30.9454C42.4008 30.9454 42.3352 30.9088 42.2886 30.8368C42.2432 30.7648 42.2205 30.6836 42.2205 30.5933C42.2205 30.503 42.2432 30.4179 42.2886 30.3381C42.3352 30.2582 42.4008 30.2111 42.4853 30.1967C42.9378 30.1535 43.2959 30.0959 43.5606 30.0265C43.8253 29.9571 44.0346 29.8459 44.1859 29.6954C44.3384 29.5448 44.4405 29.3301 44.4935 29.0513C44.5464 28.7725 44.5729 28.3877 44.5729 27.8955V19.5245C44.5729 19.4211 44.5149 19.374 44.3977 19.3806C44.2817 19.3884 44.2086 19.4355 44.1808 19.5245L41.0544 27.1598C40.8351 27.6887 40.622 28.2646 40.414 28.8877C40.2048 29.5108 39.998 30.1378 39.7938 30.7687C39.7799 30.8132 39.7408 30.8459 39.6765 30.8682C39.6135 30.8905 39.5442 30.9009 39.4711 30.9009C39.3967 30.9009 39.3273 30.8905 39.2643 30.8682C39.2 30.8459 39.1609 30.8132 39.1471 30.7687L34.3679 19.4146C34.3402 19.3334 34.2784 19.2863 34.1826 19.2706C34.0868 19.2562 34.0402 19.3112 34.0402 19.4355V27.8288C34.0402 28.3654 34.0843 28.783 34.1725 29.084C34.2608 29.3851 34.3881 29.6116 34.5533 29.7621C34.7197 29.9126 34.9264 30.0147 35.1735 30.071C35.4206 30.126 35.7105 30.1744 36.0421 30.2189C36.1127 30.2333 36.1656 30.2765 36.2009 30.3485C36.2362 30.4218 36.2539 30.503 36.2539 30.5933C36.2539 30.6836 36.2362 30.7648 36.2009 30.8368C36.1656 30.9088 36.1064 30.9454 36.0207 30.9454C35.703 30.9454 35.3513 30.9153 34.9668 30.8577C34.5823 30.7988 34.1284 30.7687 33.6053 30.7687C33.0607 30.7687 32.5753 30.7988 32.1479 30.8577C31.7206 30.9153 31.3626 30.9454 31.0726 30.9454C31.002 30.9454 30.944 30.9088 30.8974 30.8368C30.852 30.7648 30.8255 30.6836 30.818 30.5933C30.8117 30.503 30.8293 30.4218 30.8709 30.3485C30.9138 30.2765 30.9806 30.2333 31.0726 30.2189C31.447 30.1744 31.7609 30.126 32.0156 30.071C32.2702 30.016 32.4732 29.9126 32.6245 29.7621C32.777 29.6116 32.8841 29.3864 32.9484 29.0854C33.0115 28.7856 33.043 28.3667 33.043 27.8313V18.4355Z" fill="#23342E" stroke="white" stroke-width="0.00112049" stroke-miterlimit="2.61313"/>
<path d="M54.9931 25.5015C54.7952 25.5015 54.6515 25.5342 54.5633 25.601C54.475 25.6664 54.3956 25.7842 54.325 25.9531L53.3505 28.6116C53.2724 28.8538 53.2333 29.0266 53.2333 29.13C53.2333 29.3211 53.2812 29.4834 53.377 29.6156C53.4716 29.7478 53.5989 29.8538 53.7577 29.935C53.9165 30.0162 54.0994 30.0764 54.3036 30.117C54.5091 30.1575 54.7171 30.185 54.9289 30.1994C55.0348 30.1994 55.1091 30.24 55.152 30.3185C55.1936 30.3984 55.215 30.4822 55.215 30.5686C55.215 30.6628 55.1936 30.7492 55.152 30.829C55.1091 30.9076 55.0348 30.9481 54.9289 30.9481C54.7599 30.9481 54.5721 30.939 54.3679 30.9207C54.1624 30.9023 53.9519 30.8814 53.7375 30.8605C53.522 30.8382 53.3039 30.8173 53.0858 30.7989C52.8664 30.7806 52.6584 30.7715 52.4605 30.7715C52.0861 30.7715 51.723 30.8016 51.3738 30.8605C51.0246 30.9181 50.6477 30.9481 50.2456 30.9481C50.1611 30.9481 50.093 30.9049 50.0438 30.8172C49.9947 30.7308 49.9695 30.6366 49.9695 30.5358C49.9695 30.456 49.9896 30.384 50.0287 30.3185C50.0665 30.2544 50.1321 30.2138 50.2241 30.1994L50.5531 30.1562C50.7712 30.1039 50.9679 30.0423 51.1406 29.969C51.3133 29.8957 51.4784 29.7871 51.6335 29.6444C51.7886 29.5004 51.9374 29.3067 52.0786 29.0606C52.2197 28.8145 52.3685 28.4925 52.5236 28.0972L57.43 15.2691C57.4729 15.1435 57.5888 15.0819 57.7792 15.0819C57.9771 15.0819 58.1359 15.1435 58.257 15.2691C58.6162 16.2299 59.0033 17.2601 59.4168 18.357C59.8303 19.4553 60.2526 20.5705 60.6837 21.7054C61.1136 22.839 61.5473 23.966 61.9809 25.0852C62.4158 26.2044 62.8306 27.2634 63.2265 28.2621C63.3954 28.6954 63.5618 29.0305 63.7244 29.27C63.887 29.5083 64.0534 29.6902 64.2224 29.8146C64.3926 29.9389 64.5653 30.024 64.7417 30.0672C64.9182 30.1117 65.1061 30.1562 65.3027 30.1994C65.3885 30.2138 65.4502 30.2609 65.4893 30.3408C65.5271 30.4206 65.5473 30.5031 65.5473 30.5908C65.5473 30.6838 65.5297 30.7675 65.4944 30.8395C65.4591 30.9115 65.4023 30.9481 65.3242 30.9481C65.0985 30.9481 64.8741 30.9403 64.651 30.9259C64.4291 30.9115 64.2085 30.8893 63.9892 30.8605C63.7774 30.8304 63.5517 30.8081 63.3109 30.7937C63.0714 30.7793 62.8167 30.7715 62.5482 30.7715C61.933 30.7715 61.3607 30.8016 60.8312 30.8605C60.3018 30.9181 59.7899 30.9481 59.2945 30.9481C59.1962 30.9481 59.1205 30.9076 59.0676 30.829C59.0146 30.7492 58.9882 30.6549 58.9882 30.5463C58.9882 30.4599 59.0083 30.384 59.0512 30.3185C59.094 30.2544 59.1672 30.2138 59.2743 30.1994C59.7685 30.134 60.129 30.0423 60.3547 29.9245C60.5879 29.8067 60.7039 29.5567 60.7039 29.1745C60.7039 29.0711 60.6938 28.9519 60.6724 28.8158C60.6509 28.6797 60.6056 28.4938 60.535 28.2582C60.4644 28.0239 60.3635 27.7215 60.2324 27.355C60.1026 26.9872 59.9273 26.5199 59.708 25.9531C59.6374 25.7554 59.5403 25.6298 59.4168 25.5787C59.2932 25.5277 59.094 25.5015 58.818 25.5015H54.9931ZM58.7335 24.6219C58.9314 24.6219 59.0676 24.5865 59.1407 24.5171C59.2151 24.4464 59.2176 24.3247 59.147 24.148L57.2497 18.878C57.222 18.7969 57.1653 18.7563 57.0808 18.7563C56.9951 18.7563 56.9383 18.7969 56.9106 18.878L54.9289 24.148C54.8583 24.3391 54.852 24.4647 54.9074 24.5276C54.9642 24.5904 55.0738 24.6219 55.2364 24.6219H58.7335Z" fill="#23342E" stroke="white" stroke-width="0.00112049" stroke-miterlimit="2.61313"/>
<path d="M68.8373 18.6458C68.8373 19.1013 68.9268 19.4809 69.107 19.7846C69.2873 20.0896 69.518 20.3475 69.8016 20.5608C70.084 20.7729 70.3942 20.9588 70.7333 21.1158C71.0724 21.2742 71.4014 21.4261 71.7191 21.5727C72.27 21.8449 72.8171 22.1303 73.3617 22.4314C73.9051 22.7324 74.3929 23.0819 74.8241 23.4825C75.2552 23.8817 75.6044 24.3543 75.8729 24.9014C76.1415 25.4473 76.2751 26.1135 76.2751 26.8989C76.2751 27.6765 76.12 28.3323 75.8099 28.8676C75.4985 29.403 75.0939 29.8402 74.5959 30.1766C74.0979 30.5143 73.5382 30.7591 72.9167 30.9083C72.2952 31.0589 71.6737 31.1348 71.0509 31.1348C70.6412 31.1348 70.1849 31.0707 69.6794 30.9424C69.1739 30.8141 68.7137 30.6204 68.2964 30.3638C68.2183 30.335 68.1477 30.3062 68.0846 30.2761C68.0204 30.2473 67.9397 30.2316 67.8401 30.2316C67.7342 30.2316 67.6233 30.2761 67.5073 30.3638C67.3901 30.4528 67.2892 30.6099 67.2047 30.8377C67.1619 30.9254 67.1039 30.9856 67.0295 31.0196C66.9564 31.0524 66.8795 31.0628 66.8026 31.0523C66.7244 31.0406 66.6614 31.0131 66.611 30.9699C66.5618 30.9254 66.5378 30.8743 66.5378 30.8154C66.5794 30.4856 66.6185 30.1282 66.6538 29.742C66.6891 29.3572 66.7068 28.971 66.7068 28.5823C66.7068 28.1935 66.6967 27.8047 66.6753 27.416C66.6538 27.0272 66.6147 26.6201 66.558 26.1947C66.5441 26.1057 66.5732 26.0311 66.6438 25.9682C66.7144 25.9067 66.7938 25.8714 66.882 25.8635C66.9703 25.857 67.0534 25.8727 67.1303 25.9133C67.2085 25.9539 67.2539 26.018 67.269 26.1057C67.3598 26.7222 67.5212 27.2812 67.7506 27.7838C67.98 28.2865 68.2675 28.7132 68.6141 29.0653C68.9608 29.4174 69.3541 29.6936 69.7954 29.8912C70.2379 30.0889 70.7194 30.1884 71.2426 30.1884C71.6309 30.1884 72.004 30.1308 72.3608 30.0182C72.7175 29.9044 73.0327 29.7394 73.3088 29.5221C73.5836 29.3062 73.8017 29.0404 73.9605 28.725C74.1194 28.4095 74.1988 28.039 74.1988 27.6136C74.1988 27.0704 74.0854 26.5979 73.8597 26.1947C73.634 25.7902 73.3542 25.442 73.0226 25.1488C72.6898 24.8556 72.3217 24.6004 71.9145 24.3844C71.5086 24.1684 71.1253 23.9681 70.7648 23.7849C70.2845 23.5571 69.8067 23.3241 69.3289 23.0859C68.8524 22.8476 68.4275 22.5597 68.0531 22.2219C67.6787 21.8842 67.3749 21.4797 67.1417 21.0059C66.9085 20.5333 66.7912 19.9404 66.7912 19.2296C66.7912 18.511 66.9324 17.9075 67.2161 17.4193C67.4984 16.931 67.8704 16.537 68.333 16.236C68.7957 15.9362 69.3239 15.7176 69.9176 15.5815C70.5114 15.4466 71.1254 15.3786 71.762 15.3786C72.1717 15.3786 72.5159 15.4034 72.7945 15.4558C73.0731 15.5068 73.3895 15.5945 73.7424 15.7189C73.9265 15.7778 74.0803 15.8262 74.2038 15.8629C74.3274 15.8995 74.4459 15.9179 74.5594 15.9179C74.7358 15.9179 74.8594 15.8445 74.93 15.6966C74.9577 15.639 75.0132 15.5959 75.0938 15.571C75.1758 15.5448 75.2514 15.5383 75.322 15.5487C75.3926 15.5592 75.4582 15.5801 75.5174 15.6089C75.5779 15.6391 75.6007 15.6822 75.5868 15.7411C75.5086 16.0121 75.4594 16.2818 75.438 16.5501C75.4178 16.8171 75.4065 17.1025 75.4065 17.4022C75.4065 17.7989 75.4292 18.1549 75.4758 18.4704C75.5212 18.7859 75.5591 19.1589 75.5868 19.5922C75.5868 19.6367 75.5565 19.6773 75.4973 19.7139C75.4367 19.7506 75.3674 19.7741 75.2905 19.7846C75.2124 19.7964 75.1367 19.7846 75.0623 19.7519C74.988 19.7192 74.9439 19.6655 74.93 19.5922C74.7888 18.9325 74.6312 18.3879 74.4585 17.9585C74.2858 17.5292 74.0677 17.1954 73.8067 16.9572C73.5458 16.719 73.2294 16.554 72.8587 16.4624C72.4868 16.3708 72.0444 16.325 71.5288 16.325C71.1607 16.325 70.8152 16.3734 70.49 16.4729C70.1647 16.5724 69.8811 16.719 69.6365 16.9127C69.3932 17.1077 69.1991 17.3512 69.0541 17.6444C68.9091 17.9376 68.8373 18.2714 68.8373 18.6458Z" fill="#23342E" stroke="white" stroke-width="0.00112049" stroke-miterlimit="2.61313"/>
<path d="M91.7643 24.8652C91.7643 25.8404 91.6609 26.7148 91.4516 27.4871C91.2436 28.2607 90.9121 28.9152 90.4557 29.4506C90.0006 29.9846 89.4031 30.3957 88.6656 30.681C87.9269 30.9677 87.028 31.1104 85.9678 31.1104C84.958 31.1104 84.0806 31.0044 83.3356 30.791C82.5893 30.5789 81.9753 30.2438 81.4913 29.7857C81.0072 29.3275 80.6491 28.7359 80.4159 28.0094C80.1827 27.2842 80.0654 26.4006 80.0654 25.36V19.0599C80.0654 18.5912 80.0415 18.192 79.9924 17.8621C79.9419 17.5323 79.8449 17.2626 79.6999 17.0532C79.5549 16.845 79.3494 16.6827 79.0809 16.5702C78.8124 16.4563 78.4556 16.3843 78.0106 16.3555C77.9249 16.3555 77.8606 16.3149 77.814 16.2325C77.7686 16.15 77.7446 16.0636 77.7446 15.9694C77.7446 15.8764 77.7686 15.7926 77.814 15.7193C77.8606 15.6447 77.9249 15.6068 78.0106 15.6068C78.4695 15.6068 78.9952 15.6329 79.5877 15.684C80.1814 15.735 80.7374 15.7612 81.258 15.7612C81.5606 15.7612 81.8455 15.7533 82.1128 15.7389C82.38 15.7245 82.6397 15.7062 82.8893 15.684C83.1402 15.6617 83.3974 15.6434 83.6583 15.629C83.9193 15.6146 84.2016 15.6068 84.5055 15.6068C84.5975 15.6068 84.6618 15.6447 84.6971 15.7193C84.7324 15.7926 84.7462 15.8764 84.7387 15.9694C84.7324 16.0636 84.7059 16.15 84.6593 16.2325C84.6139 16.3149 84.5559 16.3555 84.4853 16.3555C84.0403 16.3843 83.6797 16.4484 83.4037 16.5479C83.1288 16.6461 82.9183 16.7966 82.7733 16.9982C82.6284 17.1998 82.5351 17.4655 82.4922 17.7954C82.4506 18.1252 82.4292 18.5467 82.4292 19.0599V25.2056C82.4292 25.8365 82.5086 26.4373 82.6675 27.008C82.8263 27.58 83.0696 28.0788 83.3949 28.5042C83.7201 28.9283 84.1285 29.2699 84.6202 29.5265C85.1118 29.7831 85.6905 29.9114 86.3548 29.9114C87.763 29.9114 88.8358 29.5095 89.5745 28.7071C90.3145 27.9047 90.6839 26.631 90.6839 24.8861V20.1921C90.6839 19.84 90.6763 19.4879 90.6625 19.1371C90.6486 18.785 90.6272 18.4472 90.5995 18.1252C90.5705 17.8032 90.5251 17.5506 90.4608 17.3673C90.3902 17.1173 90.3171 16.9288 90.2389 16.8005C90.1607 16.6723 90.0637 16.5767 89.9477 16.5152C89.8305 16.4524 89.6855 16.417 89.5128 16.4105C89.3401 16.4026 89.122 16.3843 88.861 16.3555C88.7904 16.3555 88.7362 16.3149 88.6971 16.2325C88.6581 16.15 88.6392 16.0636 88.6392 15.9694C88.6392 15.8764 88.6543 15.7926 88.6858 15.7193C88.7186 15.6447 88.7766 15.6068 88.861 15.6068C89.2077 15.6068 89.5771 15.6329 89.9691 15.684C90.3612 15.735 90.7583 15.7612 91.1605 15.7612C91.5349 15.7612 91.9118 15.735 92.2887 15.684C92.6669 15.6329 93.0855 15.6068 93.5443 15.6068C93.6301 15.6068 93.6956 15.6447 93.741 15.7193C93.7864 15.7926 93.8103 15.8764 93.8103 15.9694C93.8103 16.0636 93.7864 16.15 93.741 16.2325C93.6956 16.3149 93.6301 16.3555 93.5443 16.3555C93.2834 16.3843 93.0766 16.4026 92.9254 16.4105C92.7728 16.417 92.648 16.4524 92.5484 16.5152C92.4501 16.5767 92.3593 16.6723 92.2786 16.8005C92.198 16.9288 92.1072 17.1173 92.0088 17.3673C91.9382 17.5506 91.8828 17.7993 91.8437 18.1148C91.8059 18.4289 91.7794 18.7627 91.7643 19.1148C91.7504 19.4669 91.7466 19.8217 91.7542 20.1817C91.7618 20.5403 91.7643 20.8558 91.7643 21.1268V24.8652Z" fill="#23342E" stroke="white" stroke-width="0.00112049" stroke-miterlimit="2.61313"/>
<path d="M97.2268 19.0572C97.2268 18.5886 97.2029 18.1894 97.1524 17.8608C97.1033 17.5309 97.0062 17.2613 96.8612 17.0532C96.7162 16.8437 96.5095 16.6827 96.241 16.5688C95.9724 16.4563 95.6157 16.3843 95.1707 16.3555C95.0862 16.3555 95.0207 16.3149 94.9753 16.2325C94.9286 16.15 94.906 16.0636 94.906 15.9694C94.906 15.8764 94.9286 15.7926 94.9753 15.7193C95.0207 15.6447 95.0862 15.6068 95.1707 15.6068C95.6308 15.6068 96.1565 15.6329 96.749 15.684C97.3415 15.735 97.8987 15.7612 98.4194 15.7612C98.7219 15.7612 98.9955 15.7533 99.2413 15.7389C99.4884 15.7245 99.7267 15.7062 99.9561 15.684C100.186 15.6617 100.42 15.6434 100.661 15.629C100.9 15.6146 101.173 15.6068 101.476 15.6068C101.561 15.6068 101.625 15.6447 101.667 15.7193C101.71 15.7926 101.731 15.8764 101.731 15.9694C101.731 16.0636 101.71 16.15 101.667 16.2325C101.625 16.3149 101.568 16.3555 101.498 16.3555C101.045 16.3843 100.694 16.4484 100.443 16.5479C100.192 16.6461 100.001 16.7966 99.8704 16.9982C99.7405 17.1998 99.6611 17.4642 99.6321 17.7941C99.6044 18.1239 99.5905 18.5454 99.5905 19.0572V23.1989C99.5905 23.3167 99.646 23.386 99.7595 23.4083C99.8729 23.4305 99.975 23.3978 100.067 23.3088C101.12 22.2184 102.005 21.2105 102.722 20.2877C103.438 19.3648 103.984 18.5703 104.358 17.904C104.535 17.5899 104.634 17.3385 104.656 17.1514C104.676 16.9655 104.639 16.8163 104.544 16.7063C104.449 16.5963 104.304 16.5178 104.11 16.4707C103.916 16.4236 103.688 16.3843 103.427 16.3555C103.327 16.3398 103.255 16.2953 103.209 16.2207C103.163 16.1474 103.141 16.0636 103.141 15.9694C103.141 15.8764 103.159 15.7926 103.199 15.7193C103.238 15.6447 103.299 15.6068 103.384 15.6068C103.892 15.6068 104.344 15.6329 104.74 15.684C105.136 15.735 105.552 15.7612 105.991 15.7612C106.379 15.7612 106.726 15.735 107.028 15.684C107.332 15.6329 107.71 15.6068 108.163 15.6068C108.234 15.6068 108.286 15.6447 108.322 15.7193C108.357 15.7926 108.375 15.8764 108.375 15.9694C108.375 16.0636 108.357 16.1474 108.322 16.2207C108.286 16.2953 108.234 16.3398 108.163 16.3555C107.873 16.3843 107.63 16.4236 107.432 16.4707C107.234 16.5178 107.055 16.5859 106.896 16.6736C106.737 16.7613 106.59 16.8843 106.451 17.0414C106.314 17.1985 106.16 17.4053 105.991 17.6619C105.744 18.0205 105.478 18.3962 105.195 18.7876C104.913 19.179 104.623 19.5651 104.327 19.946C104.031 20.327 103.729 20.6961 103.427 21.0561C103.123 21.4147 102.833 21.7433 102.557 22.0443C102.486 22.1242 102.465 22.2237 102.494 22.3402C102.522 22.458 102.603 22.5784 102.737 22.7028C103.084 23.0326 103.444 23.4161 103.819 23.852C104.193 24.2879 104.569 24.7592 104.947 25.2683C105.325 25.7775 105.691 26.3051 106.044 26.8509C106.397 27.3968 106.732 27.9413 107.05 28.4832C107.354 29.0108 107.688 29.4126 108.052 29.6914C108.415 29.9703 108.9 30.1391 109.508 30.1967C109.594 30.2124 109.657 30.2569 109.7 30.3315C109.741 30.4061 109.763 30.4899 109.763 30.5829C109.763 30.6758 109.741 30.7596 109.7 30.8342C109.657 30.9075 109.594 30.9454 109.508 30.9454C109.184 30.9454 108.892 30.9376 108.634 30.9232C108.376 30.9088 108.128 30.8905 107.887 30.8682C107.647 30.8459 107.405 30.8237 107.162 30.8028C106.917 30.7805 106.658 30.7687 106.383 30.7687C106.107 30.7687 105.852 30.7805 105.62 30.8028C105.387 30.8237 105.159 30.8459 104.936 30.8682C104.714 30.8905 104.486 30.9088 104.252 30.9232C104.019 30.9376 103.758 30.9454 103.468 30.9454C103.384 30.9454 103.317 30.9075 103.267 30.8342C103.217 30.7596 103.19 30.6758 103.182 30.5829C103.176 30.4899 103.196 30.4022 103.246 30.3197C103.296 30.2386 103.37 30.1967 103.468 30.1967C103.631 30.1823 103.795 30.1548 103.961 30.1142C104.128 30.075 104.261 30.0029 104.363 29.9008C104.467 29.7974 104.525 29.6613 104.539 29.4885C104.552 29.317 104.493 29.0945 104.358 28.8249C104.111 28.3261 103.887 27.8903 103.685 27.5172C103.485 27.1441 103.275 26.7999 103.061 26.4844C102.846 26.1703 102.606 25.8626 102.345 25.5616C102.084 25.2618 101.787 24.9477 101.455 24.6178C101.306 24.4935 101.16 24.3874 101.015 24.2997C100.87 24.2107 100.661 24.1675 100.385 24.1675C100.053 24.1675 99.8376 24.2605 99.738 24.4476C99.6397 24.6348 99.5905 24.8338 99.5905 25.0458V27.8798C99.5905 28.3707 99.6082 28.7581 99.6435 29.0435C99.6788 29.3288 99.7544 29.5514 99.8704 29.7085C99.9876 29.8655 100.164 29.9755 100.401 30.0383C100.637 30.0998 100.953 30.1535 101.349 30.1967C101.42 30.2124 101.476 30.2569 101.518 30.3315C101.561 30.4061 101.586 30.4899 101.592 30.5829C101.6 30.6758 101.582 30.7596 101.539 30.8342C101.498 30.9075 101.424 30.9454 101.318 30.9454C101.028 30.9454 100.764 30.9376 100.528 30.9232C100.291 30.9088 100.059 30.8905 99.8338 30.8682C99.6082 30.8459 99.385 30.8237 99.1631 30.8028C98.9413 30.7805 98.7005 30.7687 98.4396 30.7687C97.8912 30.7687 97.3239 30.7988 96.7389 30.8577C96.1527 30.9153 95.6233 30.9454 95.1505 30.9454C95.0585 30.9454 94.9917 30.9075 94.9488 30.8342C94.9059 30.7596 94.8845 30.6758 94.8845 30.5829C94.8845 30.4899 94.9059 30.4061 94.9488 30.3315C94.9917 30.2569 95.0585 30.2124 95.1505 30.1967C95.5955 30.1535 95.9523 30.0959 96.2208 30.0265C96.4893 29.9571 96.6986 29.8432 96.8511 29.6862C97.0024 29.5291 97.1033 29.3105 97.1524 29.033C97.2029 28.7542 97.2268 28.3694 97.2268 27.8785V19.0572Z" fill="#23342E" stroke="white" stroke-width="0.00112049" stroke-miterlimit="2.61313"/>
<path d="M113.047 19.0572C113.047 18.5886 113.023 18.1894 112.973 17.8608C112.924 17.5309 112.827 17.2613 112.682 17.0532C112.537 16.8437 112.33 16.6827 112.061 16.5688C111.794 16.4563 111.437 16.3843 110.992 16.3555C110.907 16.3555 110.841 16.3149 110.796 16.2325C110.75 16.15 110.726 16.0636 110.726 15.9694C110.726 15.8764 110.75 15.7926 110.796 15.7193C110.841 15.6447 110.907 15.6068 110.992 15.6068C111.451 15.6068 111.977 15.6329 112.57 15.684C113.162 15.735 113.719 15.7612 114.24 15.7612C114.542 15.7612 114.816 15.7533 115.063 15.7389C115.309 15.7245 115.547 15.7062 115.777 15.684C116.006 15.6617 116.241 15.6434 116.481 15.629C116.721 15.6146 116.993 15.6068 117.297 15.6068C117.381 15.6068 117.446 15.6447 117.487 15.7193C117.53 15.7926 117.552 15.8764 117.552 15.9694C117.552 16.0636 117.53 16.15 117.487 16.2325C117.446 16.3149 117.389 16.3555 117.318 16.3555C116.866 16.3843 116.514 16.4484 116.263 16.5479C116.012 16.6461 115.822 16.7966 115.691 16.9982C115.561 17.1998 115.482 17.4642 115.453 17.7941C115.425 18.1239 115.411 18.5454 115.411 19.0572V23.1989C115.411 23.3167 115.468 23.386 115.58 23.4083C115.693 23.4305 115.796 23.3978 115.888 23.3088C116.94 22.2184 117.825 21.2105 118.542 20.2877C119.259 19.3648 119.804 18.5703 120.179 17.904C120.355 17.5899 120.455 17.3385 120.476 17.1514C120.496 16.9655 120.46 16.8163 120.364 16.7063C120.27 16.5963 120.125 16.5178 119.93 16.4707C119.736 16.4236 119.508 16.3843 119.247 16.3555C119.148 16.3398 119.076 16.2953 119.029 16.2207C118.984 16.1474 118.961 16.0636 118.961 15.9694C118.961 15.8764 118.98 15.7926 119.019 15.7193C119.058 15.6447 119.12 15.6068 119.204 15.6068C119.712 15.6068 120.165 15.6329 120.561 15.684C120.957 15.735 121.373 15.7612 121.811 15.7612C122.2 15.7612 122.546 15.735 122.85 15.684C123.154 15.6329 123.531 15.6068 123.983 15.6068C124.054 15.6068 124.107 15.6447 124.142 15.7193C124.178 15.7926 124.195 15.8764 124.195 15.9694C124.195 16.0636 124.178 16.1474 124.142 16.2207C124.107 16.2953 124.054 16.3398 123.983 16.3555C123.693 16.3843 123.45 16.4236 123.252 16.4707C123.054 16.5178 122.877 16.5859 122.717 16.6736C122.558 16.7613 122.41 16.8843 122.272 17.0414C122.134 17.1985 121.98 17.4053 121.811 17.6619C121.564 18.0205 121.3 18.3962 121.016 18.7876C120.734 19.179 120.444 19.5651 120.147 19.946C119.851 20.327 119.551 20.6961 119.247 21.0561C118.943 21.4147 118.653 21.7433 118.377 22.0443C118.307 22.1242 118.285 22.2237 118.314 22.3402C118.342 22.458 118.424 22.5784 118.558 22.7028C118.904 23.0326 119.265 23.4161 119.639 23.852C120.014 24.2879 120.389 24.7592 120.768 25.2683C121.146 25.7775 121.511 26.3051 121.864 26.8509C122.217 27.3968 122.553 27.9413 122.87 28.4832C123.174 29.0108 123.508 29.4126 123.873 29.6914C124.236 29.9703 124.722 30.1391 125.33 30.1967C125.414 30.2124 125.477 30.2569 125.52 30.3315C125.562 30.4061 125.583 30.4899 125.583 30.5829C125.583 30.6758 125.562 30.7596 125.52 30.8342C125.477 30.9075 125.414 30.9454 125.33 30.9454C125.005 30.9454 124.713 30.9376 124.455 30.9232C124.197 30.9088 123.948 30.8905 123.707 30.8682C123.468 30.8459 123.226 30.8237 122.983 30.8028C122.738 30.7805 122.478 30.7687 122.203 30.7687C121.927 30.7687 121.674 30.7805 121.441 30.8028C121.207 30.8237 120.979 30.8459 120.756 30.8682C120.534 30.8905 120.306 30.9088 120.073 30.9232C119.84 30.9376 119.579 30.9454 119.289 30.9454C119.204 30.9454 119.137 30.9075 119.088 30.8342C119.038 30.7596 119.01 30.6758 119.003 30.5829C118.996 30.4899 119.016 30.4022 119.067 30.3197C119.116 30.2386 119.19 30.1967 119.289 30.1967C119.451 30.1823 119.615 30.1548 119.782 30.1142C119.948 30.075 120.082 30.0029 120.185 29.9008C120.287 29.7974 120.345 29.6613 120.359 29.4885C120.373 29.317 120.314 29.0945 120.179 28.8249C119.932 28.3261 119.707 27.8903 119.507 27.5172C119.305 27.1441 119.097 26.7999 118.882 26.4844C118.666 26.1703 118.428 25.8626 118.166 25.5616C117.905 25.2618 117.608 24.9477 117.276 24.6178C117.127 24.4935 116.981 24.3874 116.836 24.2997C116.691 24.2107 116.481 24.1675 116.205 24.1675C115.874 24.1675 115.658 24.2605 115.559 24.4476C115.46 24.6348 115.411 24.8338 115.411 25.0458V27.8798C115.411 28.3707 115.429 28.7581 115.464 29.0435C115.499 29.3288 115.575 29.5514 115.691 29.7085C115.808 29.8655 115.985 29.9755 116.222 30.0383C116.457 30.0998 116.774 30.1535 117.17 30.1967C117.24 30.2124 117.297 30.2569 117.34 30.3315C117.381 30.4061 117.407 30.4899 117.413 30.5829C117.421 30.6758 117.403 30.7596 117.36 30.8342C117.318 30.9075 117.244 30.9454 117.138 30.9454C116.848 30.9454 116.585 30.9376 116.349 30.9232C116.112 30.9088 115.88 30.8905 115.654 30.8682C115.429 30.8459 115.206 30.8237 114.984 30.8028C114.762 30.7805 114.521 30.7687 114.261 30.7687C113.712 30.7687 113.144 30.7988 112.559 30.8577C111.973 30.9153 111.444 30.9454 110.971 30.9454C110.879 30.9454 110.812 30.9075 110.769 30.8342C110.726 30.7596 110.706 30.6758 110.706 30.5829C110.706 30.4899 110.726 30.4061 110.769 30.3315C110.812 30.2569 110.879 30.2124 110.971 30.1967C111.416 30.1535 111.773 30.0959 112.041 30.0265C112.31 29.9571 112.519 29.8432 112.672 29.6862C112.823 29.5291 112.924 29.3105 112.973 29.033C113.023 28.7542 113.047 28.3694 113.047 27.8785V19.0572Z" fill="#23342E" stroke="white" stroke-width="0.00112049" stroke-miterlimit="2.61313"/>
<path d="M137.34 15.6735C137.467 15.6735 137.577 15.6879 137.669 15.7167C137.781 15.7533 137.824 15.8751 137.795 16.0806C137.775 16.1971 137.762 16.3254 137.758 16.4655C137.755 16.6042 137.753 16.7508 137.753 16.9053V17.2692C137.753 17.599 137.763 17.9197 137.785 18.2313C137.806 18.5428 137.816 18.853 137.816 19.1606C137.816 19.2196 137.78 19.2654 137.705 19.2981C137.631 19.3321 137.552 19.3478 137.467 19.3478C137.389 19.3478 137.317 19.3334 137.25 19.3046C137.182 19.2745 137.142 19.2274 137.128 19.1606C137.028 18.5821 136.926 18.1253 136.82 17.7915C136.715 17.4577 136.568 17.2037 136.38 17.0322C136.194 16.8594 135.947 16.7508 135.639 16.7076C135.332 16.6631 134.923 16.6343 134.415 16.6199H133.112C132.694 16.6199 132.37 16.6265 132.137 16.6409C131.904 16.6566 131.729 16.7115 131.613 16.8058C131.495 16.9013 131.424 17.0545 131.395 17.2626C131.367 17.472 131.353 17.7679 131.353 18.1488V22.0875C131.353 22.3009 131.388 22.4331 131.459 22.4842C131.529 22.5352 131.6 22.5614 131.671 22.5614C132.341 22.5614 132.868 22.53 133.249 22.4671C133.631 22.4056 133.918 22.297 134.113 22.1425C134.308 21.9893 134.438 21.7812 134.505 21.5208C134.573 21.2603 134.627 20.933 134.67 20.5364C134.684 20.4552 134.732 20.395 134.812 20.3544C134.894 20.3152 134.98 20.2942 135.072 20.2942C135.156 20.2942 135.231 20.3152 135.295 20.3544C135.358 20.395 135.39 20.4552 135.39 20.5364C135.39 20.7785 135.383 20.9932 135.369 21.1804C135.354 21.3676 135.339 21.5548 135.322 21.7407C135.304 21.9279 135.287 22.1242 135.274 22.3297C135.26 22.5352 135.252 22.7695 135.252 23.0339C135.252 23.496 135.274 23.907 135.315 24.267C135.344 24.4503 135.363 24.6532 135.374 24.877C135.385 25.1008 135.39 25.3443 135.39 25.6087C135.39 25.682 135.354 25.737 135.284 25.7736C135.213 25.8103 135.136 25.8286 135.05 25.8286C134.958 25.8286 134.876 25.8103 134.802 25.7736C134.728 25.737 134.684 25.682 134.67 25.6087C134.627 25.1689 134.573 24.8128 134.505 24.5419C134.438 24.2696 134.308 24.0575 134.113 23.9031C133.918 23.7499 133.631 23.6452 133.249 23.5903C132.868 23.5353 132.341 23.5078 131.671 23.5078C131.6 23.5078 131.529 23.5353 131.459 23.5903C131.388 23.6452 131.353 23.7525 131.353 23.9149V26.8745C131.353 27.563 131.383 28.1062 131.443 28.5029C131.503 28.8982 131.637 29.1979 131.846 29.3995C132.054 29.6011 132.358 29.7294 132.756 29.7844C133.156 29.8393 133.691 29.8668 134.362 29.8668C134.723 29.8668 135.053 29.8524 135.353 29.8223C135.653 29.7935 135.881 29.749 136.036 29.6914C136.319 29.5815 136.566 29.4637 136.778 29.3393C136.991 29.2136 137.17 29.0566 137.318 28.8655C137.467 28.6743 137.587 28.4335 137.679 28.139C137.771 27.8458 137.845 27.4753 137.901 27.0277C137.916 26.9478 137.964 26.8889 138.045 26.8522C138.125 26.8156 138.216 26.7972 138.314 26.7972C138.42 26.7972 138.516 26.8195 138.6 26.8627C138.686 26.9072 138.721 26.9701 138.706 27.0499C138.636 27.6887 138.57 28.279 138.511 28.8223C138.45 29.3642 138.428 29.9218 138.442 30.4938C138.442 30.5161 138.437 30.5449 138.426 30.5815C138.415 30.6182 138.392 30.6535 138.357 30.6862C138.322 30.7203 138.27 30.7491 138.203 30.7752C138.137 30.8001 138.05 30.8132 137.944 30.8132H130.071C129.52 30.8132 128.98 30.8276 128.455 30.8577C127.928 30.8865 127.453 30.9153 127.029 30.9454C126.937 30.9454 126.866 30.9048 126.817 30.8263C126.768 30.7464 126.743 30.6561 126.743 30.5553C126.743 30.4755 126.763 30.3996 126.801 30.3276C126.84 30.2543 126.909 30.2111 127.008 30.1967C127.347 30.1535 127.642 30.0894 127.893 30.0043C128.143 29.9205 128.35 29.7988 128.513 29.6404C128.675 29.4833 128.795 29.2817 128.873 29.0356C128.95 28.7895 128.989 28.4832 128.989 28.1154V19.4382C128.989 19.1083 128.979 18.7836 128.958 18.4643C128.936 18.1449 128.887 17.853 128.809 17.5886C128.732 17.3242 128.619 17.0964 128.47 16.9053C128.322 16.7155 128.117 16.5833 127.856 16.51C127.701 16.4576 127.534 16.4183 127.358 16.3882C127.181 16.3594 127.015 16.3372 126.86 16.3228C126.774 16.3228 126.713 16.2874 126.675 16.2181C126.636 16.1487 126.615 16.0688 126.615 15.9811C126.615 15.8855 126.637 15.7992 126.68 15.7219C126.721 15.646 126.782 15.6068 126.86 15.6068C127.34 15.6068 127.778 15.6185 128.174 15.6395C128.562 15.6617 129.021 15.6735 129.552 15.6735H137.34Z" fill="#23342E" stroke="white" stroke-width="0.00112049" stroke-miterlimit="2.61313"/>
<path d="M141.974 19.4604C141.974 19.1371 141.964 18.8164 141.943 18.497C141.921 18.1776 141.872 17.8818 141.795 17.6108C141.717 17.3386 141.604 17.1056 141.456 16.9118C141.307 16.7168 141.102 16.5833 140.841 16.51C140.686 16.4576 140.52 16.4183 140.343 16.3882C140.167 16.3594 140 16.3372 139.845 16.3228C139.753 16.3228 139.686 16.2861 139.643 16.2128C139.602 16.1395 139.58 16.0583 139.58 15.9706C139.58 15.8816 139.602 15.7992 139.643 15.7219C139.686 15.646 139.753 15.6068 139.845 15.6068C140.092 15.6068 140.324 15.6107 140.54 15.6185C140.754 15.6251 140.961 15.6369 141.159 15.6513C141.357 15.6657 141.571 15.6761 141.8 15.684C142.03 15.6918 142.276 15.6944 142.537 15.6944C142.974 15.6879 143.372 15.6801 143.729 15.6735C144.086 15.6657 144.405 15.6552 144.687 15.6395C145.26 15.6185 145.808 15.6068 146.33 15.6068C146.916 15.6068 147.491 15.6788 148.052 15.8214C148.614 15.9641 149.116 16.1958 149.557 16.5152C149.998 16.8333 150.354 17.2443 150.622 17.747C150.891 18.2496 151.025 18.8635 151.025 19.59C151.025 20.162 150.941 20.6594 150.775 21.0809C150.61 21.5024 150.38 21.8637 150.087 22.1648C149.794 22.4659 149.449 22.7093 149.054 22.8965C148.658 23.0837 148.227 23.229 147.761 23.3311C147.662 23.3599 147.612 23.4096 147.612 23.4803C147.612 23.5497 147.662 23.6138 147.761 23.6727C148.213 23.907 148.594 24.157 148.905 24.4202C149.215 24.6846 149.475 24.9594 149.684 25.2461C149.892 25.5315 150.059 25.8247 150.182 26.1257C150.306 26.4268 150.408 26.7305 150.49 27.0394C150.571 27.3471 150.64 27.6586 150.695 27.974C150.752 28.2895 150.816 28.5984 150.887 28.8982C150.958 29.2503 151.077 29.5043 151.248 29.6574C151.417 29.8119 151.587 29.8891 151.756 29.8891C151.932 29.8891 152.1 29.8158 152.259 29.6692C152.418 29.5225 152.54 29.2948 152.624 28.9872C152.646 28.8838 152.685 28.8144 152.742 28.7777C152.798 28.7411 152.861 28.7228 152.932 28.7228C153.038 28.7228 153.137 28.7594 153.228 28.8327C153.32 28.906 153.359 28.9872 153.345 29.0749C153.302 29.4493 153.202 29.7713 153.043 30.0435C152.884 30.3145 152.69 30.5383 152.46 30.7137C152.231 30.8904 151.976 31.0187 151.698 31.0999C151.418 31.1797 151.14 31.2203 150.866 31.2203C150.632 31.2203 150.409 31.1941 150.198 31.1431C149.986 31.092 149.79 31.0135 149.61 30.9062C149.43 30.8001 149.275 30.6718 149.144 30.5213C149.012 30.3708 148.915 30.1967 148.852 29.999C148.76 29.749 148.673 29.4741 148.593 29.1744C148.511 28.8733 148.434 28.5683 148.359 28.2607C148.285 27.9531 148.214 27.6533 148.148 27.364C148.081 27.0735 148.019 26.8116 147.962 26.5773C147.694 25.6165 147.355 24.9267 146.945 24.5078C146.535 24.0824 145.963 23.8704 145.228 23.8704C144.981 23.8704 144.77 23.924 144.598 24.0301C144.425 24.1361 144.338 24.3482 144.338 24.6636V27.7057C144.338 28.2136 144.39 28.6233 144.492 28.9348C144.594 29.2477 144.746 29.4912 144.947 29.6679C145.149 29.8446 145.398 29.9689 145.694 30.0422C145.991 30.1168 146.334 30.1679 146.722 30.1967C146.814 30.1967 146.883 30.2373 146.929 30.3158C146.975 30.3957 146.998 30.4821 146.998 30.5763C146.998 30.6706 146.973 30.7556 146.924 30.8315C146.874 30.9075 146.8 30.9454 146.7 30.9454C146.341 30.9454 146.003 30.9363 145.689 30.9179C145.374 30.8996 145.077 30.8787 144.793 30.8577C144.511 30.8355 144.237 30.8145 143.972 30.7962C143.708 30.7779 143.444 30.7687 143.183 30.7687C142.632 30.7687 142.09 30.7988 141.556 30.8577C141.023 30.9153 140.502 30.9454 139.994 30.9454C139.908 30.9454 139.844 30.9075 139.797 30.8315C139.752 30.7556 139.728 30.6666 139.728 30.5658C139.728 30.4795 139.748 30.3996 139.787 30.3276C139.826 30.2543 139.894 30.2111 139.994 30.1967C140.404 30.1535 140.736 30.092 140.995 30.0161C141.253 29.9388 141.454 29.8184 141.599 29.6574C141.744 29.4964 141.842 29.2752 141.895 28.9964C141.948 28.7176 141.974 28.3576 141.974 27.9178V19.4604ZM144.338 22.1425C144.338 22.5313 144.44 22.7591 144.646 22.8245C144.857 22.8913 145.175 22.924 145.599 22.924C146.165 22.924 146.637 22.8677 147.019 22.7538C147.4 22.6399 147.706 22.4528 147.936 22.1923C148.165 21.9318 148.328 21.594 148.423 21.1804C148.518 20.7655 148.566 20.2576 148.566 19.6568C148.566 19.0769 148.515 18.5886 148.412 18.1933C148.31 17.7967 148.148 17.4773 147.925 17.2351C147.703 16.993 147.409 16.8189 147.046 16.7129C146.682 16.6068 146.242 16.5531 145.726 16.5531C145.154 16.5531 144.779 16.6304 144.603 16.7848C144.426 16.9236 144.338 17.2286 144.338 17.6972V22.1425Z" fill="#23342E" stroke="white" stroke-width="0.00112049" stroke-miterlimit="2.61313"/>
<path d="M158.981 30.1613C158.981 30.9533 158.863 31.6837 158.626 32.3513C158.389 33.0202 158.062 33.5935 157.646 34.0752C157.229 34.5556 156.737 34.9313 156.172 35.2036C155.608 35.4745 154.996 35.6106 154.339 35.6106C153.42 35.6106 152.709 35.4248 152.204 35.0543C151.7 34.6839 151.446 34.1799 151.446 33.5425C151.446 33.4024 151.471 33.261 151.521 33.1183C151.57 32.9757 151.644 32.8448 151.744 32.7283C151.842 32.6105 151.962 32.5136 152.103 32.4364C152.244 32.3591 152.411 32.3212 152.601 32.3212C152.771 32.3212 152.925 32.35 153.062 32.4089C153.2 32.4678 153.318 32.545 153.418 32.6393C153.516 32.7348 153.592 32.8448 153.645 32.9704C153.698 33.0948 153.724 33.2231 153.724 33.3553C153.724 33.4875 153.675 33.6262 153.577 33.7728C153.477 33.9194 153.428 34.0595 153.428 34.1917C153.428 34.3894 153.524 34.5399 153.714 34.642C153.905 34.7454 154.149 34.7965 154.445 34.7965C154.869 34.7965 155.221 34.7114 155.499 34.5425C155.779 34.3737 156.001 34.138 156.167 33.833C156.334 33.528 156.45 33.1616 156.517 32.7322C156.585 32.3029 156.617 31.8277 156.617 31.3067V19.0415C156.617 18.5795 156.594 18.1842 156.543 17.8582C156.494 17.531 156.396 17.2613 156.247 17.0492C156.098 16.8359 155.89 16.6749 155.622 16.5649C155.353 16.455 154.996 16.3843 154.551 16.3555C154.459 16.3555 154.392 16.3175 154.35 16.2416C154.308 16.1657 154.287 16.0806 154.287 15.9864C154.287 15.8921 154.308 15.8057 154.35 15.7259C154.392 15.6473 154.459 15.6068 154.551 15.6068C155.018 15.6068 155.547 15.629 156.141 15.6735C156.735 15.7167 157.289 15.7389 157.805 15.7389C158.109 15.7389 158.395 15.7324 158.664 15.7167C158.931 15.7023 159.193 15.6879 159.448 15.6735C159.701 15.6578 159.959 15.6434 160.22 15.629C160.483 15.6146 160.761 15.6068 161.057 15.6068C161.142 15.6068 161.202 15.6395 161.238 15.7049C161.273 15.7691 161.291 15.845 161.291 15.9327C161.291 16.0335 161.268 16.129 161.223 16.2193C161.176 16.3097 161.114 16.3555 161.036 16.3555C160.585 16.3843 160.223 16.4471 159.951 16.5427C159.678 16.6382 159.472 16.7861 159.33 16.9877C159.189 17.1906 159.096 17.4564 159.049 17.7862C159.004 18.1161 158.981 18.535 158.981 19.0415V30.1613Z" fill="#23342E" stroke="white" stroke-width="0.00112049" stroke-miterlimit="2.61313"/>
<path d="M166.313 25.5015C166.115 25.5015 165.972 25.5342 165.883 25.601C165.795 25.6664 165.716 25.7842 165.645 25.9531L164.671 28.6116C164.592 28.8538 164.553 29.0266 164.553 29.13C164.553 29.3211 164.601 29.4834 164.697 29.6156C164.793 29.7478 164.919 29.8538 165.079 29.935C165.238 30.0162 165.419 30.0764 165.624 30.117C165.829 30.1575 166.037 30.185 166.249 30.1994C166.355 30.1994 166.429 30.24 166.472 30.3185C166.515 30.3984 166.535 30.4822 166.535 30.5686C166.535 30.6628 166.515 30.7492 166.472 30.829C166.429 30.9076 166.355 30.9481 166.249 30.9481C166.08 30.9481 165.892 30.939 165.688 30.9207C165.482 30.9023 165.273 30.8814 165.058 30.8605C164.842 30.8382 164.625 30.8173 164.406 30.7989C164.186 30.7806 163.978 30.7715 163.781 30.7715C163.406 30.7715 163.044 30.8016 162.694 30.8605C162.345 30.9181 161.968 30.9481 161.566 30.9481C161.481 30.9481 161.414 30.9049 161.364 30.8172C161.315 30.7308 161.291 30.6366 161.291 30.5358C161.291 30.456 161.31 30.384 161.349 30.3185C161.388 30.2544 161.452 30.2138 161.544 30.1994L161.873 30.1562C162.093 30.1039 162.288 30.0423 162.461 29.969C162.635 29.8957 162.799 29.7871 162.954 29.6444C163.11 29.5004 163.257 29.3067 163.399 29.0606C163.54 28.8145 163.689 28.4925 163.844 28.0972L168.75 15.2691C168.793 15.1435 168.909 15.0819 169.1 15.0819C169.297 15.0819 169.457 15.1435 169.577 15.2691C169.938 16.2299 170.323 17.2601 170.737 18.357C171.15 19.4553 171.573 20.5705 172.004 21.7054C172.435 22.839 172.867 23.966 173.301 25.0852C173.736 26.2044 174.151 27.2634 174.547 28.2621C174.717 28.6954 174.882 29.0305 175.044 29.27C175.207 29.5083 175.374 29.6902 175.542 29.8146C175.713 29.9389 175.885 30.024 176.062 30.0672C176.238 30.1117 176.426 30.1562 176.624 30.1994C176.708 30.2138 176.77 30.2609 176.809 30.3408C176.848 30.4206 176.867 30.5031 176.867 30.5908C176.867 30.6838 176.85 30.7675 176.814 30.8395C176.779 30.9115 176.722 30.9481 176.644 30.9481C176.419 30.9481 176.194 30.9403 175.972 30.9259C175.749 30.9115 175.529 30.8893 175.309 30.8605C175.097 30.8304 174.872 30.8081 174.631 30.7937C174.391 30.7793 174.137 30.7715 173.868 30.7715C173.254 30.7715 172.682 30.8016 172.151 30.8605C171.622 30.9181 171.11 30.9481 170.616 30.9481C170.516 30.9481 170.441 30.9076 170.388 30.829C170.335 30.7492 170.308 30.6549 170.308 30.5463C170.308 30.4599 170.33 30.384 170.371 30.3185C170.414 30.2544 170.488 30.2138 170.594 30.1994C171.089 30.134 171.449 30.0423 171.675 29.9245C171.908 29.8067 172.025 29.5567 172.025 29.1745C172.025 29.0711 172.014 28.9519 171.992 28.8158C171.972 28.6797 171.926 28.4938 171.855 28.2582C171.784 28.0239 171.684 27.7215 171.552 27.355C171.423 26.9872 171.247 26.5199 171.028 25.9531C170.957 25.7554 170.86 25.6298 170.737 25.5787C170.613 25.5277 170.414 25.5015 170.138 25.5015H166.313ZM170.054 24.6219C170.251 24.6219 170.388 24.5865 170.462 24.5171C170.536 24.4464 170.538 24.3247 170.467 24.148L168.57 18.878C168.542 18.7969 168.485 18.7563 168.401 18.7563C168.316 18.7563 168.26 18.7969 168.231 18.878L166.249 24.148C166.178 24.3391 166.172 24.4647 166.229 24.5276C166.284 24.5904 166.394 24.6219 166.557 24.6219H170.054Z" fill="#23342E" stroke="white" stroke-width="0.00112049" stroke-miterlimit="2.61313"/>
<path fill-rule="evenodd" clip-rule="evenodd" d="M18.5548 16.382C18.0471 16.382 17.6358 15.9549 17.6358 15.4294V13.9997H13.9662V15.4294C13.9662 15.9549 13.5535 16.382 13.0473 16.382C12.5411 16.382 12.1299 15.9549 12.1299 15.4294V13.9997C12.1299 12.9486 12.9524 12.093 13.9662 12.093H17.6358C18.6497 12.093 19.4722 12.9486 19.4722 13.9997V15.4294C19.4722 15.9549 19.0609 16.382 18.5548 16.382Z" fill="#1BE69D"/>
<path fill-rule="evenodd" clip-rule="evenodd" d="M16.4563 24.8488C16.2921 24.916 16.054 24.963 15.8055 24.963C15.5569 24.963 15.3189 24.916 15.099 24.83L4.79053 21.2653V28.5371C4.79053 29.9856 5.92033 31.1587 7.31528 31.1587H24.2956C25.6906 31.1587 26.8189 29.9856 26.8189 28.5371V21.2653L16.4563 24.8488Z" fill="#1BE69D"/>
<path fill-rule="evenodd" clip-rule="evenodd" d="M26.8187 17.5667V19.7487L16.0252 23.4855C15.9513 23.5137 15.879 23.5231 15.8052 23.5231C15.7314 23.5231 15.6591 23.5137 15.5853 23.4855L4.79028 19.7487V17.5667C4.79028 16.1182 5.92009 14.9451 7.31503 14.9451H24.2954C25.6903 14.9451 26.8187 16.1182 26.8187 17.5667Z" fill="#1BE69D"/>
<path d="M78.7807 34.6815H30.2805V35.9093H78.7807V34.6815Z" fill="#1BE69D"/>
</svg>
